<?xml version="1.0" standalone="no"?>
<!DOCTYPE svg PUBLIC "-//W3C//DTD SVG 20010904//EN"
 "http://www.w3.org/TR/2001/REC-SVG-20010904/DTD/svg10.dtd">
<svg version="1.0" xmlns="http://www.w3.org/2000/svg"
 width="512.000000pt" height="512.000000pt" viewBox="0 0 512.000000 512.000000"
 preserveAspectRatio="xMidYMid meet">

<g transform="translate(0.000000,512.000000) scale(0.100000,-0.100000)"
fill="#000000" stroke="none">
<path d="M2330 5110 c-494 -48 -950 -230 -1350 -538 -195 -150 -448 -432 -594
-662 -63 -99 -186 -351 -230 -471 -49 -134 -102 -340 -128 -499 -31 -195 -31
-565 0 -760 45 -276 116 -498 237 -745 132 -269 269 -460 489 -681 221 -220
412 -357 681 -489 247 -121 469 -192 745 -237 195 -31 565 -31 760 0 276 45
498 116 745 237 269 132 460 269 681 489 220 221 357 412 489 681 88 179 132
296 180 476 63 240 78 371 78 649 0 278 -15 409 -78 649 -48 180 -92 297 -180
476 -132 269 -269 460 -489 681 -221 220 -412 357 -681 489 -246 121 -474 193
-740 235 -147 23 -475 34 -615 20z m-200 -569 l325 -237 3 -436 2 -435 -340
-247 c-187 -136 -345 -249 -352 -251 -7 -3 -197 55 -423 128 l-410 133 -127
389 -127 389 56 70 c72 90 247 264 338 338 176 141 365 255 555 336 140 60
141 60 160 61 8 0 161 -107 340 -238z m1356 179 c195 -84 382 -197 559 -338
91 -74 266 -248 338 -338 l56 -70 -127 -389 -127 -389 -410 -133 c-226 -73
-416 -131 -423 -128 -7 2 -165 115 -352 251 l-340 247 2 435 3 436 325 238
c267 195 330 237 351 234 14 -3 79 -28 145 -56z m-2205 -1851 c222 -72 408
-135 413 -139 10 -10 265 -787 266 -809 0 -7 -114 -170 -252 -362 l-253 -348
-412 -1 -411 0 -53 82 c-196 304 -322 670 -359 1038 -21 204 -55 157 320 431
179 131 328 238 331 238 3 1 187 -58 410 -130z m3299 -108 c375 -274 341 -227
320 -431 -37 -368 -165 -737 -359 -1037 l-53 -83 -411 0 -412 1 -252 348
c-139 192 -253 355 -253 362 1 31 259 804 272 812 16 10 799 266 813 266 6 0
156 -107 335 -238z m-1332 -1321 l253 -350 -122 -377 c-67 -208 -125 -385
-130 -393 -8 -18 -169 -60 -324 -85 -207 -35 -523 -35 -730 0 -155 25 -316 67
-324 85 -5 8 -63 185 -130 393 l-122 377 253 350 253 349 435 0 435 0 253
-349z"/>
</g>
</svg>
