<svg width="40" height="40" viewBox="0 0 40 40" fill="none" xmlns="http://www.w3.org/2000/svg">
<path d="M39.9233 9.23669L25.8933 23.2667C24.329 24.8271 22.2096 25.7034 20 25.7034C17.7904 25.7034 15.671 24.8271 14.1067 23.2667L0.0766667 9.23669C0.0533333 9.50003 0 9.73836 0 10V30C0.00264643 32.2094 0.88147 34.3274 2.4437 35.8897C4.00593 37.4519 6.12401 38.3307 8.33333 38.3334H31.6667C33.876 38.3307 35.9941 37.4519 37.5563 35.8897C39.1185 34.3274 39.9974 32.2094 40 30V10C40 9.73836 39.9467 9.50003 39.9233 9.23669Z" fill="white"/>
<path d="M23.5367 20.91L38.76 5.68502C38.0225 4.46222 36.9824 3.45008 35.7399 2.74624C34.4975 2.04239 33.0946 1.67059 31.6667 1.66669H8.33332C6.90536 1.67059 5.50249 2.04239 4.26003 2.74624C3.01758 3.45008 1.97745 4.46222 1.23999 5.68502L16.4633 20.91C17.4026 21.8455 18.6743 22.3708 20 22.3708C21.3257 22.3708 22.5974 21.8455 23.5367 20.91Z" fill="white"/>
</svg>
