<svg width="40" height="40" viewBox="0 0 40 40" fill="none" xmlns="http://www.w3.org/2000/svg">
<g clip-path="url(#clip0_69_83)">
<path d="M33.3333 13.3333C29.65 13.3333 26.6667 10.35 26.6667 6.66667C26.6667 2.98333 29.65 0 33.3333 0C37.0167 0 40 2.98333 40 6.66667C40 10.35 37.0167 13.3333 33.3333 13.3333ZM20 25.7C21.2833 25.7 22.5667 25.2167 23.5333 24.2333L31.3167 16.45C26.7667 15.5167 23.3333 11.4833 23.3333 6.65C23.3333 6.08333 23.4 5.53333 23.4833 4.98333H8.33333C5.31667 4.98333 2.7 6.6 1.23333 9L16.4667 24.25C17.4333 25.2167 18.7167 25.7167 20 25.7167V25.7ZM36.2667 16.2167L25.8833 26.6C24.2667 28.2167 22.1167 29.0333 19.9833 29.0333C17.85 29.0333 15.7167 28.2167 14.0833 26.6L0.0833333 12.5667C0.0666667 12.8167 0 13.0667 0 13.3333V31.6667C0 36.2667 3.73333 40 8.33333 40H31.6667C36.2667 40 40 36.2667 40 31.6667L39.9667 14.1167C38.9 15.0667 37.65 15.7833 36.2667 16.2167Z" fill="white"/>
</g>
<defs>
<clipPath id="clip0_69_83">
<rect width="40" height="40" fill="white"/>
</clipPath>
</defs>
</svg>
