<?xml version="1.0" standalone="no"?>
<!DOCTYPE svg PUBLIC "-//W3C//DTD SVG 20010904//EN"
 "http://www.w3.org/TR/2001/REC-SVG-20010904/DTD/svg10.dtd">
<svg version="1.0" xmlns="http://www.w3.org/2000/svg"
 width="512.000000pt" height="512.000000pt" viewBox="0 0 512.000000 512.000000"
 preserveAspectRatio="xMidYMid meet">

<g transform="translate(0.000000,512.000000) scale(0.100000,-0.100000)"
fill="#000000" stroke="none">
<path d="M1524 4781 c-53 -24 -73 -55 -113 -171 -90 -262 -249 -463 -436 -551
-34 -16 -100 -37 -149 -48 -89 -19 -125 -37 -159 -83 -60 -81 -41 -599 39
-1018 155 -818 497 -1489 1020 -2001 212 -207 456 -386 716 -527 l116 -63 61
30 c436 221 851 579 1150 996 310 430 538 984 645 1565 80 434 99 938 39 1018
-34 46 -70 64 -159 83 -266 57 -471 267 -585 599 -40 116 -60 147 -113 171
-38 17 -76 19 -582 19 -533 0 -542 0 -568 -21 -34 -27 -37 -86 -5 -115 20 -18
48 -19 556 -24 l534 -5 24 -70 c102 -304 298 -548 527 -655 36 -17 105 -40
153 -52 l87 -22 -5 -275 c-6 -302 -23 -465 -77 -724 -120 -576 -351 -1076
-703 -1520 -104 -133 -382 -410 -522 -521 -107 -85 -324 -236 -415 -289 l-46
-26 -119 76 c-761 482 -1277 1195 -1510 2088 -85 323 -118 579 -119 930 l-1
269 60 12 c33 7 87 22 120 34 240 83 464 339 575 658 l33 92 304 0 304 0 24
25 c16 15 25 36 25 55 0 19 -9 40 -25 55 l-24 25 -318 0 c-288 0 -322 -2 -359
-19z"/>
<path d="M1719 4467 c-9 -7 -41 -64 -72 -127 -142 -295 -318 -474 -573 -585
-120 -52 -114 -42 -114 -207 0 -425 112 -948 294 -1378 168 -395 396 -731 697
-1025 179 -175 361 -316 572 -444 l38 -23 72 42 c379 223 747 598 1016 1035
68 110 74 142 36 180 -52 53 -95 29 -169 -93 -141 -230 -288 -413 -487 -607
-144 -140 -256 -233 -386 -322 l-82 -56 -58 38 c-187 123 -466 376 -625 565
-417 496 -668 1111 -743 1815 -8 77 -15 181 -15 230 l0 91 83 43 c244 127 443
331 560 573 l52 107 745 0 745 0 52 -107 c115 -241 316 -446 561 -573 l82 -43
0 -88 c0 -184 -47 -520 -106 -753 -33 -131 -104 -347 -154 -470 -22 -54 -40
-110 -40 -125 0 -58 83 -92 128 -52 25 20 116 249 167 417 105 346 165 720
165 1033 0 154 5 145 -114 197 -106 46 -175 89 -262 162 -131 112 -219 231
-311 423 -31 63 -63 120 -72 127 -23 18 -1659 18 -1682 0z"/>
<path d="M2465 4019 c-375 -30 -712 -250 -890 -581 -51 -95 -54 -119 -20 -153
28 -29 70 -32 102 -10 21 15 23 14 36 -17 32 -76 59 -170 51 -177 -5 -4 -37
-31 -70 -59 -34 -29 -64 -52 -68 -52 -3 0 -6 20 -6 45 0 59 -25 85 -80 85 -35
0 -43 -5 -60 -32 -17 -29 -20 -51 -20 -164 0 -197 33 -341 115 -504 114 -226
275 -390 490 -496 333 -164 704 -165 1029 -3 274 137 486 399 571 709 33 118
44 331 25 461 -64 440 -398 807 -835 919 -66 17 -104 22 -235 34 -19 1 -80 -1
-135 -5z m314 -181 l45 -14 -132 -82 c-73 -45 -134 -82 -136 -82 -10 0 -256
163 -253 167 3 2 33 10 68 18 81 18 343 14 408 -7z m-483 -204 l184 -117 0
-76 0 -77 -182 -134 c-100 -74 -187 -138 -193 -142 -12 -7 -183 36 -196 49 -9
10 -119 324 -119 340 0 22 158 172 234 222 43 28 81 51 84 51 3 0 88 -52 188
-116z m799 65 c43 -27 111 -84 151 -125 l73 -74 -62 -181 c-68 -200 -58 -186
-169 -212 l-66 -15 -191 135 -192 135 3 81 3 81 180 113 c99 62 183 113 186
113 4 0 41 -23 84 -51z m362 -446 c29 -75 49 -156 59 -229 l7 -59 -34 26 c-19
14 -58 43 -87 64 -29 21 -51 43 -49 49 2 6 19 55 36 109 18 53 36 97 39 97 4
0 17 -26 29 -57z m-728 -150 c91 -64 169 -119 174 -123 4 -3 -21 -98 -56 -211
l-63 -204 -218 0 -218 0 -69 200 c-38 109 -66 202 -61 206 15 14 336 249 340
249 2 0 79 -52 171 -117z m646 -226 c155 -113 150 -102 109 -243 -24 -84 -94
-233 -132 -283 l-19 -23 -129 11 c-210 19 -194 13 -237 87 l-39 66 69 221 69
222 79 22 c44 12 83 21 87 20 5 -1 69 -46 143 -100z m-1403 72 c92 -25 75 2
168 -272 l63 -187 -54 -81 -54 -81 -74 6 c-41 3 -113 6 -160 6 l-86 0 -27 43
c-65 103 -139 298 -137 361 0 25 233 224 263 225 11 1 55 -9 98 -20z m865
-616 c40 -66 40 -67 27 -117 -7 -28 -22 -95 -34 -148 -22 -97 -23 -98 -59
-108 -98 -30 -416 -20 -447 13 -7 7 -31 70 -54 140 l-42 129 53 79 54 79 231
0 232 0 39 -67z m328 -152 l30 -6 -37 -30 c-45 -36 -160 -106 -165 -101 -2 2
3 36 12 75 l17 71 56 -1 c31 -1 70 -4 87 -8z m-1084 -20 c10 -10 39 -104 34
-109 -7 -7 -112 58 -153 96 l-37 32 75 -6 c41 -4 78 -9 81 -13z"/>
</g>
</svg>
