<?xml version="1.0" standalone="no"?>
<!DOCTYPE svg PUBLIC "-//W3C//DTD SVG 20010904//EN"
 "http://www.w3.org/TR/2001/REC-SVG-20010904/DTD/svg10.dtd">
<svg version="1.0" xmlns="http://www.w3.org/2000/svg"
 width="512.000000pt" height="512.000000pt" viewBox="0 0 512.000000 512.000000"
 preserveAspectRatio="xMidYMid meet">

<g transform="translate(0.000000,512.000000) scale(0.100000,-0.100000)"
fill="#000000" stroke="none">
<path d="M185 4935 l-25 -24 0 -2351 0 -2351 25 -24 24 -25 1344 0 1344 0 27
21 c37 29 37 89 0 118 -27 21 -27 21 -1315 21 l-1289 0 0 2240 0 2240 1655 0
1655 0 0 -1000 0 -1001 25 -24 c34 -35 86 -34 114 1 21 27 21 30 21 1081 l0
1054 -25 24 -24 25 -1766 0 -1766 0 -24 -25z"/>
<path d="M1416 4679 l-26 -20 0 -214 0 -214 26 -20 c21 -17 41 -21 97 -21 l70
0 54 -51 c126 -119 332 -159 509 -99 66 23 152 78 189 121 22 27 28 29 103 29
69 0 81 3 100 23 21 22 22 31 22 234 l0 212 -26 20 c-26 21 -36 21 -559 21
-523 0 -533 0 -559 -21z m984 -234 l0 -95 -56 0 c-55 0 -56 0 -118 -65 -84
-88 -134 -109 -251 -110 -117 0 -183 29 -266 115 -55 58 -59 60 -108 60 l-51
0 0 95 0 95 425 0 425 0 0 -95z"/>
<path d="M600 4553 c-20 -11 -37 -28 -41 -43 -4 -14 -7 -890 -8 -1948 -1
-2136 -6 -1981 66 -2002 27 -8 304 -10 961 -8 l924 3 24 28 c29 34 31 66 3
101 l-20 26 -897 2 -897 3 0 1845 0 1845 267 3 267 2 20 27 c29 35 27 74 -5
104 l-26 24 -301 3 c-273 2 -305 1 -337 -15z"/>
<path d="M2713 4563 c-36 -7 -66 -52 -59 -88 12 -60 12 -60 309 -65 l272 -5 3
-842 2 -842 26 -20 c36 -29 75 -27 105 5 l24 26 0 894 0 893 -23 23 c-22 23
-24 23 -330 24 -169 1 -317 0 -329 -3z"/>
<path d="M953 3740 c-40 -16 -43 -39 -43 -293 0 -232 1 -246 21 -271 l20 -26
258 0 c256 0 258 0 279 23 21 23 22 30 22 276 l0 252 -25 24 -24 25 -243 -1
c-134 0 -253 -4 -265 -9z m397 -290 l0 -140 -140 0 -140 0 0 140 0 140 140 0
140 0 0 -140z"/>
<path d="M1675 3520 c-51 -20 -65 -90 -25 -130 19 -19 33 -20 310 -20 l291 0
24 25 c40 40 30 96 -22 123 -25 14 -545 16 -578 2z"/>
<path d="M2460 3523 c-52 -19 -69 -94 -30 -133 19 -19 33 -20 294 -20 l275 0
20 26 c35 45 26 95 -20 119 -22 12 -77 15 -276 14 -136 0 -255 -3 -263 -6z"/>
<path d="M935 2725 l-25 -24 0 -251 0 -251 25 -24 24 -25 254 0 c252 0 254 0
275 23 21 23 22 30 22 276 l0 252 -25 24 -24 25 -251 0 -251 0 -24 -25z m415
-275 l0 -140 -140 0 -140 0 0 140 0 140 140 0 140 0 0 -140z"/>
<path d="M3585 2634 c-159 -23 -293 -63 -410 -121 -349 -174 -589 -486 -672
-876 -25 -114 -24 -361 0 -477 94 -440 405 -795 820 -934 143 -47 230 -61 397
-61 167 0 254 14 397 61 360 121 659 420 777 779 41 124 56 209 62 345 28 603
-392 1140 -991 1265 -77 16 -317 28 -380 19z m330 -172 c21 -7 25 -11 15 -16
-8 -3 -57 -21 -109 -41 l-94 -35 -108 41 c-60 23 -107 44 -105 47 21 21 335
24 401 4z m-362 -197 l97 -37 0 -127 0 -127 -196 -142 -196 -143 -122 28 -121
29 -49 188 -50 189 66 62 c73 70 135 115 222 161 l58 32 97 -38 c53 -20 140
-54 194 -75z m696 75 c74 -40 173 -116 238 -182 l53 -53 -39 -163 c-21 -90
-42 -167 -47 -172 -5 -4 -65 -24 -133 -44 l-124 -36 -194 141 -194 141 3 130
3 130 180 68 c99 38 184 69 189 70 4 0 34 -14 65 -30z m-1420 -515 l30 -120
-108 -108 -108 -109 9 67 c13 98 53 225 99 316 22 45 42 79 44 77 2 -2 17 -57
34 -123z m1937 -163 c14 -53 23 -105 22 -114 -4 -21 -168 163 -168 188 0 9 6
42 14 73 8 31 17 70 21 86 7 29 9 27 47 -53 22 -46 51 -127 64 -180z m-860 42
c96 -70 174 -133 174 -140 0 -8 -29 -104 -65 -214 l-66 -200 -222 0 -222 0
-68 211 c-65 200 -67 212 -50 224 10 7 90 65 178 129 87 64 161 116 163 116 2
0 82 -57 178 -126z m743 -259 c103 -117 140 -167 141 -186 0 -47 -47 -213 -84
-295 l-37 -80 -195 -48 c-107 -27 -197 -47 -199 -45 -13 15 -175 282 -175 291
0 6 32 111 71 233 l72 222 121 36 c66 20 126 35 133 34 6 -1 75 -74 152 -162z
m-1550 117 l114 -27 74 -227 73 -227 -95 -145 c-52 -80 -98 -146 -102 -146 -5
0 -93 23 -198 50 -120 31 -194 56 -202 66 -26 35 -75 170 -96 260 l-21 95 164
164 c91 91 167 165 170 165 3 -1 56 -13 119 -28z m954 -716 c48 -79 87 -147
87 -151 0 -5 -48 -86 -107 -182 -126 -203 -100 -188 -330 -188 -139 0 -154 2
-171 20 -27 29 -225 337 -225 350 0 6 41 75 92 153 l93 142 237 0 236 -1 88
-143z m-1006 -193 l104 -26 48 -71 c26 -39 58 -88 70 -109 l24 -39 -64 33
c-35 17 -89 49 -120 69 -65 45 -213 184 -185 175 11 -3 66 -17 123 -32z m1412
-37 c-37 -35 -93 -82 -125 -104 -62 -41 -164 -96 -164 -87 0 3 27 49 60 102
l60 98 102 27 c57 14 110 26 118 27 8 0 -15 -28 -51 -63z"/>
<path d="M1684 2523 c-56 -11 -76 -91 -34 -133 19 -19 33 -20 314 -20 l295 0
20 26 c28 35 26 67 -3 101 l-24 28 -274 1 c-150 1 -283 0 -294 -3z"/>
<path d="M2463 2523 c-51 -10 -71 -95 -33 -133 18 -18 33 -20 139 -20 133 0
156 9 167 66 5 24 0 37 -19 60 -25 28 -28 29 -129 31 -56 0 -113 -1 -125 -4z"/>
<path d="M935 1725 l-25 -24 0 -251 0 -251 25 -24 24 -25 251 0 251 0 24 25
25 24 0 254 c0 252 0 254 -23 275 -23 21 -30 22 -276 22 l-252 0 -24 -25z
m415 -275 l0 -140 -140 0 -140 0 0 140 0 140 140 0 140 0 0 -140z"/>
<path d="M1657 1508 c-28 -22 -36 -60 -22 -95 21 -50 54 -55 353 -51 l264 3
24 28 c29 34 31 66 3 101 l-20 26 -293 0 c-218 0 -296 -3 -309 -12z"/>
</g>
</svg>
