<svg width="50" height="50" viewBox="0 0 50 50" fill="none" xmlns="http://www.w3.org/2000/svg">
<path d="M2.74818 26.2792L10.1689 31.8751L7.35072 40.8866C6.89528 42.2843 6.88951 43.7965 7.33427 45.1978C7.77902 46.5991 8.65048 47.8145 9.81874 48.6628C10.967 49.5383 12.3585 50.0073 13.7858 49.9999C15.2132 49.9925 16.6001 49.5092 17.7398 48.6219L24.9958 43.1078L32.254 48.6154C33.4001 49.4859 34.7841 49.9587 36.2069 49.9659C37.6297 49.973 39.0181 49.5142 40.1724 48.6553C41.3268 47.7963 42.1876 46.5816 42.6311 45.1857C43.0747 43.7898 43.0781 42.2847 42.6409 40.8866L39.8227 31.8751L47.2435 26.2792C48.3881 25.4151 49.2391 24.1996 49.6747 22.8063C50.1103 21.413 50.1084 19.9132 49.6691 18.5211C49.2299 17.129 48.3758 15.9159 47.2289 15.0549C46.082 14.194 44.7009 13.7293 43.283 13.7272H34.1675L31.4014 4.82541C30.9664 3.42419 30.1117 2.20183 28.9604 1.33457C27.8092 0.467321 26.4209 0 24.9958 0C23.5707 0 22.1825 0.467321 21.0312 1.33457C19.88 2.20183 19.0252 3.42419 18.5902 4.82541L15.8241 13.7272H6.71703C5.29905 13.7293 3.91798 14.194 2.77107 15.0549C1.62417 15.9159 0.770099 17.129 0.330859 18.5211C-0.108381 19.9132 -0.110325 21.413 0.325305 22.8063C0.760934 24.1996 1.61185 25.4151 2.75652 26.2792H2.74818Z" fill="#195E3B"/>
</svg>
