<svg width="50" height="50" viewBox="0 0 50 50" fill="none" xmlns="http://www.w3.org/2000/svg">
<path d="M24.9961 0.5C26.3112 0.500058 27.5936 0.93171 28.6592 1.73438C29.7251 2.53731 30.5193 3.67068 30.9238 4.97363L33.6904 13.876L33.7998 14.2275H43.2822L43.5273 14.2324C44.7497 14.2841 45.9335 14.708 46.9287 15.4551C47.9905 16.2522 48.784 17.3775 49.1924 18.6719C49.6008 19.9664 49.6024 21.3616 49.1973 22.6572C48.8175 23.8718 48.0993 24.9388 47.1377 25.7266L46.9424 25.8799L39.5215 31.4756L39.2402 31.6885L39.3457 32.0244L42.1641 41.0361C42.5705 42.3362 42.5667 43.7362 42.1543 45.0342C41.7419 46.3321 40.9426 47.4587 39.874 48.2539C38.8056 49.0489 37.5221 49.4724 36.209 49.4658C34.9781 49.4595 33.7772 49.076 32.7578 48.3643L32.5566 48.2168L25.2979 42.709L24.9961 42.4795L24.6934 42.71L17.4375 48.2236L17.4326 48.2275C16.3789 49.0479 15.0987 49.4932 13.7832 49.5C12.4678 49.5068 11.1835 49.0748 10.1221 48.2656V48.2646L10.1123 48.2578C9.03238 47.4736 8.22361 46.3482 7.81055 45.0469C7.39746 43.7453 7.40327 42.3401 7.82617 41.042L7.82812 41.0361L10.6465 32.0244L10.751 31.6885L10.4697 31.4756L4.24121 26.7793H4.24902L3.05762 25.8799C1.99799 25.0799 1.20781 23.9526 0.802734 22.6572C0.397644 21.3616 0.399237 19.9664 0.807617 18.6719C1.21604 17.3775 2.0095 16.2522 3.07129 15.4551C4.06648 14.708 5.25031 14.2841 6.47266 14.2324L6.71777 14.2275H16.1924L16.3018 13.876L19.0674 4.97363C19.4718 3.67075 20.2663 2.53731 21.332 1.73438C22.3977 0.931629 23.6809 0.5 24.9961 0.5Z" fill="#195E3B" fill-opacity="0.37" stroke="black"/>
</svg>
