<svg width="40" height="40" viewBox="0 0 40 40" fill="none" xmlns="http://www.w3.org/2000/svg">
<g clip-path="url(#clip0_70_196)">
<path d="M38.2917 14.49L26.4817 2.68002C22.8993 -0.893177 17.1008 -0.893177 13.5184 2.68002L1.70838 14.49C0.610881 15.5816 -0.00427451 17.0669 2.23598e-05 18.615V35.9116C0.00369423 38.1693 1.834 39.9981 4.09173 39.9999H35.9083C38.166 39.9981 39.9963 38.1693 39.9999 35.9116V18.615C40.0043 17.0669 39.3892 15.5816 38.2917 14.49ZM35 35H26.6667V29.6966C26.6667 26.1822 23.8177 23.3333 20.3033 23.3333H19.6967C16.1823 23.3333 13.3334 26.1822 13.3334 29.6966V35H5.00001V18.615C5.00056 18.394 5.0879 18.1821 5.24337 18.025L17.0534 6.21501C18.6803 4.58759 21.3185 4.58728 22.9459 6.21423C22.9461 6.21447 22.9465 6.21478 22.9467 6.21501L34.7567 18.025C34.9121 18.1821 34.9995 18.394 35 18.615V35H35Z" fill="white"/>
</g>
<defs>
<clipPath id="clip0_70_196">
<rect width="40" height="40" fill="white"/>
</clipPath>
</defs>
</svg>
