<svg width="40" height="40" viewBox="0 0 40 40" fill="none" xmlns="http://www.w3.org/2000/svg">
<path d="M39.27 35.7451L31.5275 27.9992C37.3208 20.2573 35.7412 9.28468 27.9992 3.49132C20.2573 -2.30203 9.28468 -0.722374 3.49132 7.01957C-2.30203 14.7615 -0.722374 25.7341 7.01957 31.5275C13.2385 36.1812 21.7802 36.1812 27.9992 31.5275L35.7451 39.2733C36.7185 40.2467 38.2966 40.2467 39.27 39.2733C40.2434 38.2999 40.2434 36.7217 39.27 35.7484L39.27 35.7451ZM17.5739 30.0324C10.6933 30.0324 5.11545 24.4546 5.11545 17.5739C5.11545 10.6933 10.6933 5.11545 17.5739 5.11545C24.4546 5.11545 30.0324 10.6933 30.0324 17.5739C30.0251 24.4515 24.4516 30.0251 17.5739 30.0324Z" fill="white"/>
<g clip-path="url(#clip0_53_16)">
<path d="M24.6538 10.0985H10.818C9.24726 10.0985 7.96948 11.3763 7.96948 12.9471V21.8996C7.96948 23.4704 9.24726 24.7482 10.818 24.7482H24.6538C26.2246 24.7482 27.5024 23.4704 27.5024 21.8996V12.9471C27.5024 11.3763 26.2246 10.0985 24.6538 10.0985ZM17.7359 19.0511C16.8382 19.0511 16.1082 18.321 16.1082 17.4233C16.1082 16.5256 16.8382 15.7956 17.7359 15.7956C18.6336 15.7956 19.3637 16.5256 19.3637 17.4233C19.3637 18.321 18.6336 19.0511 17.7359 19.0511ZM10.4111 21.8996V20.6788H12.0388V14.1679H10.4111V12.9471C10.4111 12.7232 10.5934 12.5401 10.818 12.5401H16.5151V13.5615C14.8703 14.084 13.6666 15.6076 13.6666 17.4233C13.6666 19.2391 14.8703 20.7627 16.5151 21.2852V22.3066H10.818C10.5934 22.3066 10.4111 22.1235 10.4111 21.8996ZM25.0608 20.6788V21.8996C25.0608 22.1235 24.8785 22.3066 24.6538 22.3066H18.9567V21.2852C20.6016 20.7627 21.8053 19.2391 21.8053 17.4233C21.8053 15.6076 20.6016 14.084 18.9567 13.5615V12.5401H24.6538C24.8785 12.5401 25.0608 12.7232 25.0608 12.9471V14.1679H23.433V20.6788H25.0608Z" fill="white"/>
</g>
<defs>
<clipPath id="clip0_53_16">
<rect width="19.5329" height="19.5329" fill="white" transform="translate(7.96948 7.65692)"/>
</clipPath>
</defs>
</svg>
