<svg width="40" height="40" viewBox="0 0 40 40" fill="none" xmlns="http://www.w3.org/2000/svg">
<g clip-path="url(#clip0_53_48)">
<path d="M19.8097 4.16667C19.8097 1.865 21.6747 0 23.9764 0C26.2781 0 28.1431 1.865 28.1431 4.16667C28.1431 6.46833 26.2781 8.33333 23.9764 8.33333C21.6747 8.33333 19.8097 6.46833 19.8097 4.16667ZM36.6664 33.3333C34.8247 33.3333 33.3331 34.825 33.3331 36.6667C33.3331 38.5083 34.8247 40 36.6664 40C38.5081 40 39.9997 38.5083 39.9997 36.6667C39.9997 34.825 38.5081 33.3333 36.6664 33.3333ZM29.8814 37.715C30.2231 38.57 29.8081 39.54 28.9531 39.8817C28.1197 40.22 27.1281 39.8167 26.7864 38.9517L24.1347 32.32C23.8014 31.485 23.2464 30.755 22.5331 30.2083L15.5031 24.8267C13.5714 23.6117 12.7497 21.0367 13.6714 18.7883L17.1731 11.7483L12.4147 9.45167C11.2147 8.87167 10.1581 8.00333 9.35973 6.93333L6.16473 2.665C5.61307 1.92833 5.76473 0.883333 6.50307 0.333333C7.2414 -0.22 8.28307 -0.0666667 8.8364 0.67L12.0281 4.94C12.5081 5.58167 13.1414 6.10333 13.8614 6.45167L37.3931 17.805C38.2231 18.205 38.5697 19.2017 38.1697 20.03C37.7681 20.8683 36.7547 21.2017 35.9447 20.8067L25.9964 16.0067L21.5564 25.2667L24.5597 27.5617C25.7497 28.4717 26.6747 29.6883 27.2331 31.0833L29.8847 37.715H29.8814ZM17.4064 22.0967L18.8347 23.1883L22.9931 14.5583L20.1714 13.1967L16.7031 20.1633C16.4464 20.8033 16.7214 21.66 17.4064 22.095V22.0967ZM11.3647 25.2917L8.04807 27.855L2.66307 23.7067C1.9264 23.1617 0.888066 23.3117 0.336399 24.0433C-0.220268 24.7833 -0.0702675 25.8333 0.673066 26.3867L6.0314 30.5283C7.22807 31.4183 8.86807 31.405 10.0514 30.4983L13.7331 27.6717C12.8281 27.0733 11.9447 26.1717 11.3647 25.2917Z" fill="white"/>
</g>
<defs>
<clipPath id="clip0_53_48">
<rect width="40" height="40" fill="white"/>
</clipPath>
</defs>
</svg>
